<svg width="32" height="32" viewBox="0 0 32 32" fill="none" xmlns="http://www.w3.org/2000/svg">
    <path d="M0 15.9974C0.0866838 16.9661 0.128628 17.9407 0.262848 18.8974C0.872431 23.1919 2.76829 26.6947 6.23005 28.9889C11.7554 32.6567 17.6192 32.8276 23.5556 30.2935C26.5616 29.0099 28.8741 26.7487 30.3589 23.6088C31.95 20.2409 32.3191 16.6812 31.7459 12.9834C30.8762 7.39035 27.9346 3.57266 23.0831 1.43139C19.7443 -0.0411035 16.2602 -0.299015 12.7285 0.300779C9.63868 0.825599 6.81726 2.05818 4.48798 4.37638C1.3422 7.51031 0.0587213 11.4779 0 15.9974Z" fill="white"/>
    <path d="M12.2354 12.0006L19.7648 20.001" stroke="#181818" stroke-width="2" stroke-linecap="square" stroke-linejoin="round"/>
    <path d="M19.7648 12.0006L12.2354 20.001" stroke="#181818" stroke-width="2" stroke-linecap="square" stroke-linejoin="round"/>
</svg>
