<svg viewBox="0 0 26 34" fill="none" xmlns="http://www.w3.org/2000/svg">
    <path d="M12.6649 33.1164C5.31423 33.1164 -0.017626 27.8458 4.37882e-05 20.5861C0.0177136 13.1587 5.30981 7.86164 12.7355 7.84841C19.8874 7.83518 25.3076 13.3307 25.2678 20.5596C25.2281 27.9517 20.0464 33.112 12.6649 33.1164Z" fill="#0B0B0B"/>
    <path d="M21.4392 8.80557C15.5911 5.09652 9.75197 5.27122 3.82812 8.80109C5.27677 5.33393 9.02096 3.27335 13.2956 3.45701C17.0665 3.61827 20.5433 5.87596 21.4392 8.80557Z" fill="#0B0B0B"/>
    <path d="M19.1428 4.01539C14.8202 1.2388 10.5064 1.36542 6.12598 4.01539C7.19999 1.41517 9.96491 -0.131402 13.1248 0.00878411C15.9119 0.130882 18.4816 1.82216 19.1428 4.01992V4.01539Z" fill="#0B0B0B"/>
    <path d="M12.6649 33.1164C5.31423 33.1164 -0.017626 27.8458 4.37882e-05 20.5861C0.0177136 13.1587 5.30981 7.86164 12.7355 7.84841C19.8874 7.83518 25.3076 13.3307 25.2678 20.5596C25.2281 27.9517 20.0464 33.112 12.6649 33.1164Z" fill="#0B0B0B"/>
    <path d="M21.4392 8.80557C15.5911 5.09652 9.75197 5.27122 3.82812 8.80109C5.27677 5.33393 9.02096 3.27335 13.2956 3.45701C17.0665 3.61827 20.5433 5.87596 21.4392 8.80557Z" fill="#0B0B0B"/>
    <path d="M19.1428 4.01539C14.8202 1.2388 10.5064 1.36542 6.12598 4.01539C7.19999 1.41517 9.96491 -0.131402 13.1248 0.00878411C15.9119 0.130882 18.4816 1.82216 19.1428 4.01992V4.01539Z" fill="#0B0B0B"/>
    <path d="M9 15V26L18 20.5L9 15Z" fill="white"/>
</svg>
