<svg width="180" height="48" viewBox="0 0 180 48" fill="none" xmlns="http://www.w3.org/2000/svg">
<g clip-path="url(#clip0_304_7986)">
<path
			d="M18.8175 47.7889C7.89592 47.7889 -0.0261888 40.2279 6.50608e-05 29.8132C0.0263189 19.1581 7.88935 11.5591 18.9225 11.5401C29.5488 11.5211 37.6022 19.4049 37.5431 29.7752C37.484 40.3797 29.7851 47.7826 18.8175 47.7889Z"
			fill="#181818"
		/>
<path d="M14.552 35.1012V23.3203L24.4072 29.2108L14.552 35.1012Z" fill="white" />
<path
			d="M31.8049 12.8241C23.1288 7.51118 14.466 7.76143 5.67749 12.8177C7.82667 7.85126 13.3815 4.89963 19.7232 5.16271C25.3177 5.39371 30.4757 8.62767 31.8049 12.8241Z"
			fill="#181818"
		/>
<path
			d="M28.3982 5.96317C21.9852 1.98592 15.5853 2.16729 9.08667 5.96317C10.6801 2.23855 14.782 0.0232025 19.47 0.224008C23.6049 0.398904 27.4172 2.82153 28.3982 5.96965V5.96317Z"
			fill="#181818"
		/>
<path
			d="M47.5437 36.579V35.6189H48.1256C48.8239 35.6189 49.2506 35.5122 49.4058 35.2989C49.5803 35.0661 49.6676 34.6588 49.6676 34.0769V19.9954C49.6676 19.5105 49.6191 19.1517 49.5221 18.9189C49.4445 18.6862 49.2506 18.531 48.9403 18.4534C48.6493 18.3759 48.1741 18.3371 47.5146 18.3371V17.377H54.2354L59.3559 30.4693H59.4141L64.4183 17.377H70.848V18.3371C70.2274 18.3371 69.7618 18.3759 69.4515 18.4534C69.1606 18.531 68.9666 18.6862 68.8696 18.9189C68.792 19.1517 68.7533 19.5105 68.7533 19.9954V33.9896C68.7533 34.4357 68.792 34.7849 68.8696 35.037C68.9666 35.2698 69.1606 35.4249 69.4515 35.5025C69.7618 35.5801 70.2274 35.6189 70.848 35.6189V36.579H62.4108V35.6189C63.0314 35.6189 63.4775 35.5801 63.7491 35.5025C64.0206 35.4055 64.1952 35.2407 64.2728 35.0079C64.3504 34.7752 64.3892 34.4357 64.3892 33.9896V20.5191H64.331L58.454 36.1717H56.9702L50.9477 20.6937H50.9186V34.0769C50.9186 34.717 51.0059 35.134 51.1805 35.3279C51.3551 35.5219 51.7915 35.6189 52.4897 35.6189H53.3625V36.579H47.5437Z"
			fill="black"
		/>
<path
			d="M75.2764 42.7178C74.7528 42.7178 74.2679 42.6014 73.8217 42.3687C73.3756 42.1553 73.0168 41.845 72.7453 41.4377C72.4931 41.0498 72.367 40.6134 72.367 40.1285C72.367 39.6048 72.5416 39.1393 72.8907 38.7319C73.2593 38.344 73.7248 38.1501 74.2872 38.1501C74.8303 38.1501 75.257 38.3149 75.5674 38.6447C75.8971 38.9744 76.062 39.3914 76.062 39.8957C76.062 40.1479 76.0232 40.3418 75.9456 40.4776C75.868 40.6327 75.7807 40.7491 75.6838 40.8267C75.6062 40.9237 75.5674 41.0401 75.5674 41.1758C75.5674 41.3116 75.6159 41.4183 75.7129 41.4959C75.8098 41.5735 75.9359 41.6122 76.0911 41.6122C76.4402 41.6122 76.7796 41.3989 77.1094 40.9722C77.4391 40.5455 77.7979 39.8278 78.1858 38.8192L83.5682 24.7377C83.6652 24.4662 83.6652 24.2528 83.5682 24.0977C83.4713 23.9425 83.2967 23.8649 83.0445 23.8649H82.0844V22.9048H86.7104V23.8649C86.4 23.8649 86.1285 23.9037 85.8958 23.9813C85.6824 24.0395 85.4884 24.185 85.3139 24.4177C85.1587 24.6311 84.9744 24.9802 84.7611 25.4651L80.3679 36.2299C80.0188 37.0639 79.689 37.8688 79.3787 38.6447C79.0878 39.4399 78.758 40.1382 78.3895 40.7394C78.0404 41.3601 77.6137 41.845 77.1094 42.1941C76.6245 42.5433 76.0135 42.7178 75.2764 42.7178ZM79.0587 37.8009L73.7927 25.0578C73.6569 24.6892 73.5211 24.4274 73.3853 24.2722C73.2496 24.0977 73.0653 23.991 72.8326 23.9522C72.5998 23.894 72.2507 23.8649 71.7852 23.8649V22.9048H79.5242V23.8649H78.6223C78.3895 23.8649 78.2149 23.9522 78.0986 24.1268C78.0016 24.2819 78.0113 24.5341 78.1277 24.8832L80.7461 31.924H81.5026L79.0587 37.8009Z"
			fill="black"
		/>
<path
			d="M104.147 36.899C102.014 36.899 100.239 36.5014 98.823 35.7062C97.4071 34.9109 96.3306 33.7763 95.5936 32.3022C94.8759 30.8087 94.5171 29.0243 94.5171 26.9489C94.5171 25.3972 94.7208 24.0104 95.1281 22.7884C95.5354 21.5665 96.1367 20.5288 96.9319 19.6754C97.7465 18.8026 98.7551 18.1431 99.9577 17.697C101.16 17.2509 102.557 17.0278 104.147 17.0278C105.718 17.0278 107.105 17.2509 108.308 17.697C109.53 18.1431 110.538 18.8026 111.333 19.6754C112.148 20.5288 112.749 21.5665 113.137 22.7884C113.545 24.0104 113.748 25.3972 113.748 26.9489C113.748 29.0243 113.389 30.8087 112.672 32.3022C111.954 33.7763 110.878 34.9109 109.442 35.7062C108.026 36.5014 106.261 36.899 104.147 36.899ZM107.086 41.5541C106.174 41.5541 105.389 41.4183 104.729 41.1467C104.089 40.8946 103.556 40.5261 103.129 40.0412C102.702 39.5757 102.382 39.0326 102.169 38.4119C101.975 37.7912 101.878 37.1318 101.878 36.4335H106.417C106.417 37.1318 106.494 37.7331 106.649 38.2373C106.824 38.7416 107.057 39.1296 107.348 39.4011C107.658 39.692 108.017 39.8375 108.424 39.8375C108.793 39.8375 109.142 39.7599 109.471 39.6048C109.821 39.469 110.131 39.3041 110.402 39.1102L110.926 40.0703C110.79 40.2254 110.548 40.4097 110.199 40.6231C109.85 40.8558 109.413 41.0692 108.89 41.2631C108.385 41.4571 107.784 41.5541 107.086 41.5541ZM104.147 35.8516C104.826 35.8516 105.427 35.7353 105.951 35.5025C106.494 35.2504 106.96 34.8818 107.348 34.3969C107.735 33.912 108.046 33.3108 108.279 32.5931C108.531 31.8755 108.715 31.0511 108.831 30.1201C108.948 29.1697 109.006 28.1126 109.006 26.9489C109.006 25.4942 108.899 24.214 108.686 23.1085C108.492 22.0029 108.191 21.0816 107.784 20.3445C107.396 19.5881 106.892 19.0256 106.271 18.6571C105.67 18.2692 104.962 18.0752 104.147 18.0752C103.274 18.0752 102.528 18.2692 101.907 18.6571C101.286 19.0256 100.782 19.5881 100.394 20.3445C100.006 21.0816 99.7249 22.0029 99.5504 23.1085C99.3758 24.214 99.2885 25.4942 99.2885 26.9489C99.2885 28.1126 99.3467 29.1697 99.4631 30.1201C99.5795 31.0511 99.754 31.8755 99.9868 32.5931C100.22 33.3108 100.53 33.912 100.918 34.3969C101.306 34.8818 101.762 35.2504 102.285 35.5025C102.828 35.7353 103.449 35.8516 104.147 35.8516Z"
			fill="black"
		/>
<path
			d="M121.495 36.9281C120.195 36.9281 119.177 36.5693 118.44 35.8516C117.703 35.1146 117.334 33.9702 117.334 32.4185V25.4942C117.334 25.0481 117.276 24.7571 117.16 24.6214C117.043 24.4662 116.811 24.3886 116.461 24.3886H115.501V23.4285L120.156 22.7593H121.437V32.0694C121.437 32.8065 121.514 33.398 121.669 33.8442C121.844 34.2903 122.096 34.62 122.426 34.8333C122.755 35.0273 123.143 35.1243 123.59 35.1243C123.958 35.1243 124.297 35.0564 124.608 34.9206C124.918 34.7655 125.228 34.5618 125.539 34.3097C125.849 34.0381 126.159 33.7472 126.47 33.4368L126.586 34.3969C126.334 34.6879 125.985 35.0273 125.539 35.4152C125.093 35.8031 124.53 36.1523 123.851 36.4626C123.192 36.7729 122.406 36.9281 121.495 36.9281ZM126.353 36.579V34.717H126.237V25.4942C126.237 25.0481 126.179 24.7571 126.062 24.6214C125.966 24.4662 125.742 24.3886 125.393 24.3886H124.433V23.4285L129.059 22.7593H130.339V34.4842C130.339 34.814 130.378 35.0661 130.456 35.2407C130.553 35.3958 130.727 35.5025 130.979 35.5607C131.232 35.5995 131.61 35.6189 132.114 35.6189V36.579H126.353Z"
			fill="black"
		/>
<path
			d="M140.44 36.899C138.307 36.899 136.678 36.3074 135.553 35.1243C134.447 33.9217 133.894 32.1373 133.894 29.771C133.894 28.1611 134.146 26.8228 134.651 25.756C135.174 24.6892 135.921 23.894 136.891 23.3703C137.88 22.8466 139.092 22.5848 140.528 22.5848C141.653 22.5848 142.622 22.7496 143.437 23.0794C144.252 23.3897 144.911 23.8552 145.415 24.4759C145.939 25.0772 146.317 25.8045 146.55 26.6579C146.802 27.5114 146.928 28.4909 146.928 29.5964V29.8583H136.367V28.8109H142.593C142.593 27.6277 142.535 26.6579 142.419 25.9015C142.322 25.1451 142.118 24.5826 141.808 24.214C141.517 23.8261 141.08 23.6322 140.499 23.6322C140.014 23.6322 139.597 23.7873 139.248 24.0977C138.918 24.408 138.666 24.9511 138.491 25.7269C138.317 26.5028 138.229 27.5793 138.229 28.9564C138.229 30.0231 138.287 30.9445 138.404 31.7203C138.52 32.4767 138.704 33.1071 138.957 33.6114C139.228 34.1157 139.587 34.4939 140.033 34.7461C140.499 34.9788 141.061 35.0952 141.721 35.0952C142.399 35.0952 142.981 34.9885 143.466 34.7752C143.97 34.5424 144.397 34.2224 144.746 33.8151C145.115 33.4077 145.415 32.9325 145.648 32.3895L146.637 32.9131C146.385 33.5144 146.036 34.1254 145.59 34.7461C145.144 35.3667 144.514 35.8807 143.699 36.288C142.904 36.6954 141.817 36.899 140.44 36.899Z"
			fill="black"
		/>
<path
			d="M154.566 36.9281C153.267 36.9281 152.249 36.5693 151.512 35.8516C150.775 35.1146 150.406 33.9702 150.406 32.4185V25.4942C150.406 25.0481 150.348 24.7571 150.231 24.6214C150.115 24.4662 149.882 24.3886 149.533 24.3886H148.573V23.4285L153.228 22.7593H154.508V32.0694C154.508 32.8065 154.586 33.398 154.741 33.8442C154.916 34.2903 155.168 34.62 155.497 34.8333C155.827 35.0273 156.215 35.1243 156.661 35.1243C157.03 35.1243 157.369 35.0564 157.679 34.9206C157.99 34.7655 158.3 34.5618 158.61 34.3097C158.921 34.0381 159.231 33.7472 159.541 33.4368L159.658 34.3969C159.406 34.6879 159.057 35.0273 158.61 35.4152C158.164 35.8031 157.602 36.1523 156.923 36.4626C156.264 36.7729 155.478 36.9281 154.566 36.9281ZM159.425 36.579V34.717H159.309V25.4942C159.309 25.0481 159.251 24.7571 159.134 24.6214C159.037 24.4662 158.814 24.3886 158.465 24.3886H157.505V23.4285L162.131 22.7593H163.411V34.4842C163.411 34.814 163.45 35.0661 163.527 35.2407C163.624 35.3958 163.799 35.5025 164.051 35.5607C164.303 35.5995 164.681 35.6189 165.186 35.6189V36.579H159.425Z"
			fill="black"
		/>
<path
			d="M173.512 36.899C171.378 36.899 169.749 36.3074 168.624 35.1243C167.519 33.9217 166.966 32.1373 166.966 29.771C166.966 28.1611 167.218 26.8228 167.722 25.756C168.246 24.6892 168.993 23.894 169.963 23.3703C170.952 22.8466 172.164 22.5848 173.599 22.5848C174.724 22.5848 175.694 22.7496 176.509 23.0794C177.323 23.3897 177.983 23.8552 178.487 24.4759C179.011 25.0772 179.389 25.8045 179.622 26.6579C179.874 27.5114 180 28.4909 180 29.5964V29.8583H169.439V28.8109H175.665C175.665 27.6277 175.607 26.6579 175.49 25.9015C175.393 25.1451 175.19 24.5826 174.879 24.214C174.589 23.8261 174.152 23.6322 173.57 23.6322C173.085 23.6322 172.668 23.7873 172.319 24.0977C171.989 24.408 171.737 24.9511 171.563 25.7269C171.388 26.5028 171.301 27.5793 171.301 28.9564C171.301 30.0231 171.359 30.9445 171.475 31.7203C171.592 32.4767 171.776 33.1071 172.028 33.6114C172.3 34.1157 172.659 34.4939 173.105 34.7461C173.57 34.9788 174.133 35.0952 174.792 35.0952C175.471 35.0952 176.053 34.9885 176.538 34.7752C177.042 34.5424 177.469 34.2224 177.818 33.8151C178.186 33.4077 178.487 32.9325 178.72 32.3895L179.709 32.9131C179.457 33.5144 179.108 34.1254 178.662 34.7461C178.216 35.3667 177.585 35.8807 176.771 36.288C175.975 36.6954 174.889 36.899 173.512 36.899Z"
			fill="black"
		/>
</g>
<defs>
<clipPath id="clip0_304_7986">
<rect width="180" height="47.5773" fill="white" transform="translate(0 0.211426)" />
</clipPath>
</defs>
</svg>
