<svg width="113" height="35" viewBox="0 0 113 35" fill="none" xmlns="http://www.w3.org/2000/svg">
    <path d="M40.0123 22.304L42.9883 12.48H47.2123V13.408L45.8683 13.744V22.736L47.2123 23.072V24H42.6203V23.072L43.7883 22.736V13.76L40.8763 24H38.6043L35.7563 13.76V22.736L36.9243 23.072V24H32.8923V23.072L34.2363 22.736V13.744L32.8923 13.408V12.48H37.1803L39.9483 22.304H40.0123ZM55.8878 16.56L53.3118 23.616C52.9598 24.4373 52.6398 25.0987 52.3518 25.6C52.0638 26.112 51.7438 26.48 51.3918 26.704C51.0505 26.928 50.6025 27.04 50.0478 27.04C49.5465 27.04 49.1145 26.9067 48.7518 26.64C48.3998 26.3733 48.2238 26.0373 48.2238 25.632C48.2238 25.2587 48.3305 24.9493 48.5438 24.704C48.7678 24.4693 49.0558 24.352 49.4078 24.352C49.7172 24.352 49.9518 24.4213 50.1118 24.56C50.2825 24.6987 50.3678 24.9067 50.3678 25.184C50.3678 25.2907 50.3092 25.4347 50.1918 25.616C50.0852 25.808 49.8985 25.904 49.6318 25.904C49.6532 26.0107 49.7172 26.08 49.8238 26.112C49.9305 26.1547 50.0212 26.176 50.0958 26.176C50.2452 26.176 50.3838 26.144 50.5118 26.08C50.6398 26.0267 50.7732 25.8933 50.9118 25.68C51.0612 25.4667 51.2212 25.1413 51.3918 24.704L51.5838 24.112L48.3678 16.56L47.4078 16.256V15.36H51.4718L51.5998 16.256L50.4638 16.56L52.4318 22.112H52.4958L54.2718 16.56L53.3438 16.256V15.36H56.8638V16.256L55.8878 16.56ZM72.0573 18.112C72.0573 19.04 71.9187 19.9147 71.6413 20.736C71.364 21.5467 70.9693 22.224 70.4573 22.768C70.0627 23.1947 69.5987 23.52 69.0653 23.744C68.5427 23.9573 67.9507 24.0907 67.2893 24.144V24.208L68.8413 25.264C69.2253 25.52 69.6573 25.648 70.1373 25.648C70.34 25.648 70.5053 25.6107 70.6333 25.536C70.7613 25.472 70.916 25.3547 71.0973 25.184L71.4493 25.824C71.2253 26.2293 70.9267 26.5173 70.5533 26.688C70.18 26.8693 69.7373 26.96 69.2253 26.96C68.6387 26.96 68.116 26.8587 67.6573 26.656C67.2093 26.4533 66.8627 26.1493 66.6173 25.744L65.6573 24.128C64.356 24.032 63.332 23.5947 62.5853 22.816C62.0947 22.304 61.716 21.664 61.4493 20.896C61.1827 20.1173 61.0493 19.2747 61.0493 18.368C61.0493 17.44 61.188 16.5653 61.4653 15.744C61.7427 14.9227 62.1373 14.2453 62.6493 13.712C63.1187 13.2213 63.668 12.8693 64.2973 12.656C64.9267 12.432 65.6787 12.32 66.5533 12.32C67.4173 12.32 68.1747 12.4267 68.8253 12.64C69.4867 12.8533 70.0467 13.1947 70.5053 13.664C71.0067 14.1653 71.3907 14.8107 71.6573 15.6C71.924 16.3787 72.0573 17.216 72.0573 18.112ZM63.3693 18.016C63.3693 18.8587 63.444 19.6107 63.5933 20.272C63.7427 20.9333 63.956 21.4613 64.2333 21.856C64.7027 22.6453 65.4867 23.04 66.5853 23.04C67.62 23.04 68.3773 22.688 68.8573 21.984C69.444 21.2373 69.7373 20.0213 69.7373 18.336C69.7373 16.6507 69.444 15.408 68.8573 14.608C68.356 13.8187 67.572 13.424 66.5053 13.424C65.5027 13.424 64.7507 13.776 64.2493 14.48C63.6627 15.1947 63.3693 16.3733 63.3693 18.016ZM76.24 15.36V19.648C76.24 20.3307 76.256 20.8427 76.288 21.184C76.32 21.5253 76.368 21.7973 76.432 22C76.5173 22.256 76.656 22.4533 76.848 22.592C77.0506 22.72 77.2533 22.784 77.456 22.784C77.744 22.784 78.0053 22.7307 78.24 22.624C78.4746 22.5173 78.6933 22.3733 78.896 22.192C79.3333 21.7973 79.5733 21.184 79.616 20.352V16.56L78.224 16.256V15.36H81.648V22.8L82.88 23.104V24L79.92 24.16L79.744 22.4H79.68C79.3706 22.944 78.9493 23.376 78.416 23.696C77.8826 24.0053 77.312 24.16 76.704 24.16C76.2986 24.16 75.9253 24.0853 75.584 23.936C75.2533 23.776 74.992 23.5627 74.8 23.296C74.5973 22.9973 74.448 22.576 74.352 22.032C74.256 21.488 74.208 20.7627 74.208 19.856V16.56L73.136 16.256V15.36H76.24ZM91.4775 19.904H85.8935C85.8935 20.6293 86.0001 21.232 86.2135 21.712C86.3841 22.0747 86.6135 22.3573 86.9015 22.56C87.1895 22.752 87.5468 22.848 87.9735 22.848C88.4428 22.848 88.9068 22.7413 89.3655 22.528C89.8348 22.3147 90.2348 21.9947 90.5655 21.568L91.4295 22.24C91.0561 22.7733 90.5495 23.2267 89.9095 23.6C89.2801 23.9733 88.5015 24.16 87.5735 24.16C86.7948 24.16 86.1228 24.0053 85.5575 23.696C84.9921 23.376 84.5601 22.912 84.2615 22.304C84.1015 21.9733 83.9841 21.6053 83.9095 21.2C83.8348 20.7947 83.7975 20.3573 83.7975 19.888C83.7975 18.3947 84.1388 17.2427 84.8215 16.432C85.5148 15.6107 86.4908 15.2 87.7495 15.2C88.9121 15.2 89.8295 15.5413 90.5015 16.224C91.1841 16.896 91.5255 17.8293 91.5255 19.024C91.5255 19.1413 91.5201 19.2587 91.5095 19.376C91.5095 19.4827 91.4988 19.6587 91.4775 19.904ZM87.7175 16.304C86.6188 16.304 86.0161 17.1627 85.9095 18.88H89.4295V18.464C89.4295 17.7707 89.2748 17.2373 88.9655 16.864C88.6668 16.4907 88.2508 16.304 87.7175 16.304ZM95.5681 15.36V19.648C95.5681 20.3307 95.5841 20.8427 95.6161 21.184C95.6481 21.5253 95.6961 21.7973 95.7601 22C95.8454 22.256 95.9841 22.4533 96.1761 22.592C96.3787 22.72 96.5814 22.784 96.7841 22.784C97.0721 22.784 97.3334 22.7307 97.5681 22.624C97.8027 22.5173 98.0214 22.3733 98.2241 22.192C98.6614 21.7973 98.9014 21.184 98.9441 20.352V16.56L97.5521 16.256V15.36H100.976V22.8L102.208 23.104V24L99.2481 24.16L99.0721 22.4H99.0081C98.6987 22.944 98.2774 23.376 97.7441 23.696C97.2107 24.0053 96.6401 24.16 96.0321 24.16C95.6267 24.16 95.2534 24.0853 94.9121 23.936C94.5814 23.776 94.3201 23.5627 94.1281 23.296C93.9254 22.9973 93.7761 22.576 93.6801 22.032C93.5841 21.488 93.5361 20.7627 93.5361 19.856V16.56L92.4641 16.256V15.36H95.5681ZM110.806 19.904H105.222C105.222 20.6293 105.328 21.232 105.542 21.712C105.712 22.0747 105.942 22.3573 106.23 22.56C106.518 22.752 106.875 22.848 107.302 22.848C107.771 22.848 108.235 22.7413 108.694 22.528C109.163 22.3147 109.563 21.9947 109.894 21.568L110.758 22.24C110.384 22.7733 109.878 23.2267 109.238 23.6C108.608 23.9733 107.83 24.16 106.902 24.16C106.123 24.16 105.451 24.0053 104.886 23.696C104.32 23.376 103.888 22.912 103.59 22.304C103.43 21.9733 103.312 21.6053 103.238 21.2C103.163 20.7947 103.126 20.3573 103.126 19.888C103.126 18.3947 103.467 17.2427 104.15 16.432C104.843 15.6107 105.819 15.2 107.078 15.2C108.24 15.2 109.158 15.5413 109.83 16.224C110.512 16.896 110.854 17.8293 110.854 19.024C110.854 19.1413 110.848 19.2587 110.838 19.376C110.838 19.4827 110.827 19.6587 110.806 19.904ZM107.046 16.304C105.947 16.304 105.344 17.1627 105.238 18.88H108.758V18.464C108.758 17.7707 108.603 17.2373 108.294 16.864C107.995 16.4907 107.579 16.304 107.046 16.304Z" fill="#181818"/>
    <path d="M19.8225 8.00301L18.8428 7.51564C12.3055 4.26357 5.68418 7.42714 5.61802 7.45954L4.63577 7.94069L3.65479 6.01487L4.63704 5.53498C4.94749 5.38291 12.3246 1.8616 19.8378 5.59855L20.8175 6.08592L19.8225 8.00426V8.00301Z" fill="#181818"/>
    <path d="M18.3618 3.1362L17.3108 2.82208C12.4428 1.36495 7.46408 2.76225 7.41318 2.77596L6.36095 3.07886L5.73877 1.01718L6.791 0.711794C7.01875 0.64573 12.4351 -0.888687 17.9521 0.762899L19.003 1.07701L18.3605 3.13495L18.3618 3.1362Z" fill="#181818"/>
    <path d="M12.2435 30.9998C9.74202 31.0035 7.39072 30.4451 5.24808 29.1525C3.57494 28.1428 2.27333 26.7754 1.38523 25.0628C-0.30191 21.8032 -0.441869 18.4265 0.932269 15.061C2.40183 11.4599 5.19082 9.2599 9.03714 8.38985C12.2066 7.67313 15.3073 7.92866 18.2362 9.36211C20.4463 10.4441 22.1144 12.1019 23.2111 14.2845C24.2544 16.3598 24.6667 18.5624 24.388 20.8497C23.8867 24.9643 21.8243 28.0444 17.936 29.8455C16.1343 30.6794 14.2194 30.9948 12.2422 30.9998H12.2435ZM3.7976 19.5808C3.84341 20.0482 3.86504 20.5181 3.93756 20.9818C4.26074 23.0559 5.26208 24.7462 7.09172 25.8555C10.013 27.6255 13.1125 27.709 16.2501 26.485C17.8393 25.8655 19.062 24.7736 19.8458 23.2566C20.6868 21.63 20.8827 19.9111 20.5786 18.1249C20.1193 15.4237 18.5632 13.5802 15.9982 12.5469C14.2347 11.8351 12.3923 11.7117 10.5258 12.0009C8.89209 12.2539 7.4009 12.8498 6.17053 13.9691C4.5063 15.4823 3.82814 17.3982 3.7976 19.5808Z" fill="#181818"/>
    <path d="M3.15649 19.5801C3.20484 20.0812 3.22902 20.5873 3.30663 21.0846C3.65271 23.3108 4.72912 25.127 6.69235 26.3174C9.8287 28.2182 13.1559 28.3067 16.5251 26.9929C18.2313 26.3273 19.5444 25.1556 20.3854 23.5277C21.2888 21.7814 21.4987 19.9366 21.173 18.0183C20.6793 15.1177 19.0087 13.1396 16.2553 12.029C14.3621 11.2649 12.3848 11.1327 10.3809 11.4431C8.6276 11.7148 7.02571 12.3543 5.70501 13.5559C3.91863 15.1801 3.19085 17.238 3.15649 19.5801Z" fill="#181818"/>
    <path d="M8.86694 23.3345V15.2062C8.86694 14.8697 9.26519 14.659 9.58582 14.8248L17.2924 18.7973C17.6143 18.9631 17.6194 19.3844 17.3001 19.5564L9.59346 23.7135C9.27282 23.8867 8.86694 23.6761 8.86694 23.3358V23.3345Z" fill="white"/>
</svg>
