<svg viewBox="0 0 112 34" fill="none" xmlns="http://www.w3.org/2000/svg">
    <path d="M34.9539 20.5208C34.9539 19.1425 34.973 17.4771 34.9348 16.1371H35.2602C35.643 17.5537 36.1216 19.1616 36.715 20.8462L38.4761 25.1915H40.3904L42.1132 20.9227C42.7066 19.3339 43.2426 17.592 43.6446 16.1371H43.97C43.9317 17.4771 43.8743 19.1808 43.8743 20.5208V25.8424H46.0565V14.3569H42.7066L39.5864 22.9327C39.5825 22.9327 39.5903 22.9327 39.5903 22.9327H39.5864C39.5825 22.9327 39.5903 22.9327 39.5864 22.9327L36.5044 14.3569H32.9248V25.8424H34.9539V20.5208Z" fill="#0B0B0B"/>
    <path d="M48.6918 29.1923C50.7591 29.1923 51.8694 28.1969 52.7882 25.9572L56.5019 16.8454H54.3005L51.9716 23.7367L49.534 16.8454H47.2752L50.8931 25.7466C50.2997 27.1058 49.7637 27.3546 48.7492 27.3546C48.3663 27.3546 47.9835 27.2972 47.6006 27.2206L47.2752 29.0774C47.6964 29.1349 48.0983 29.1923 48.6918 29.1923Z" fill="#0B0B0B"/>
    <path d="M66.4135 24.1961C63.9441 24.1961 62.853 22.5499 62.853 20.0613C62.853 17.6494 63.9633 16.0223 66.4326 16.0223C68.8829 16.0223 69.9931 17.6494 69.9931 20.0613C69.9931 22.569 68.902 24.1961 66.4135 24.1961ZM66.4326 26.0912C67.1218 26.0912 67.7343 26.0146 68.3086 25.8424L69.3614 27.6609H71.6394V27.4503L70.0506 25.0192C71.4288 23.9664 72.1754 22.2436 72.1754 20.0613C72.1754 16.4434 70.0506 14.108 66.4326 14.108C62.8339 14.108 60.6899 16.4434 60.6899 20.0613C60.6899 23.6984 62.7381 26.0912 66.4326 26.0912Z" fill="#0B0B0B"/>
    <path d="M79.8554 25.8424H81.8653V16.8454H79.798V21.9373C79.798 23.2964 78.8983 24.2153 77.5009 24.2153C76.2757 24.2153 75.7972 23.4113 75.7972 22.3201V16.8454H73.7298V22.8561C73.7298 24.8087 74.6295 26.0912 76.5246 26.0912C78.0177 26.0912 79.1663 25.1341 79.664 23.4687H79.8554V25.8424Z" fill="#0B0B0B"/>
    <path d="M87.9757 18.2045C89.4114 18.2045 90.1005 19.0085 90.1771 20.559H85.5637C85.7552 18.9511 86.5783 18.2045 87.9757 18.2045ZM88.0331 26.0721C90.4451 26.0721 91.5745 24.9618 91.9956 23.3347L90.2345 22.837C89.9856 23.6984 89.4879 24.3875 88.0522 24.3875C86.5209 24.3875 85.6977 23.5644 85.5446 21.9373H92.0339C92.0722 21.4779 92.0722 21.0759 92.0722 20.7313C92.0722 18.2619 90.7513 16.6157 88.0331 16.6157C85.2192 16.6157 83.4963 18.4151 83.4963 21.4587C83.4963 24.4641 85.2766 26.0721 88.0331 26.0721Z" fill="#0B0B0B"/>
    <path d="M99.783 25.8424H101.793V16.8454H99.7256V21.9373C99.7256 23.2964 98.8259 24.2153 97.4285 24.2153C96.2033 24.2153 95.7248 23.4113 95.7248 22.3201V16.8454H93.6574V22.8561C93.6574 24.8087 94.5571 26.0912 96.4522 26.0912C97.9453 26.0912 99.0939 25.1341 99.5916 23.4687H99.783V25.8424Z" fill="#0B0B0B"/>
    <path d="M107.903 18.2045C109.339 18.2045 110.028 19.0085 110.105 20.559H105.491C105.683 18.9511 106.506 18.2045 107.903 18.2045ZM107.961 26.0721C110.373 26.0721 111.502 24.9618 111.923 23.3347L110.162 22.837C109.913 23.6984 109.416 24.3875 107.98 24.3875C106.448 24.3875 105.625 23.5644 105.472 21.9373H111.961C112 21.4779 112 21.0759 112 20.7313C112 18.2619 110.679 16.6157 107.961 16.6157C105.147 16.6157 103.424 18.4151 103.424 21.4587C103.424 24.4641 105.204 26.0721 107.961 26.0721Z" fill="#0B0B0B"/>
    <path d="M12.6649 33.1165C5.31423 33.1165 -0.017626 27.8459 4.37882e-05 20.5861C0.0177136 13.1588 5.30981 7.86171 12.7355 7.84847C19.8874 7.83524 25.3076 13.3308 25.2678 20.5597C25.2281 27.9517 20.0464 33.1121 12.6649 33.1165Z" fill="#0B0B0B"/>
    <path d="M21.4392 8.80557C15.5911 5.09652 9.75197 5.27122 3.82812 8.80109C5.27677 5.33393 9.02096 3.27335 13.2956 3.45701C17.0665 3.61827 20.5433 5.87596 21.4392 8.80557Z" fill="#0B0B0B"/>
    <path d="M19.1428 4.01539C14.8202 1.2388 10.5064 1.36542 6.12598 4.01539C7.19999 1.41517 9.96491 -0.131402 13.1248 0.00878411C15.9119 0.130882 18.4816 1.82216 19.1428 4.01992V4.01539Z" fill="#0B0B0B"/>
    <path fill-rule="evenodd" clip-rule="evenodd" d="M9.76298 24.8852L16.9414 20.5781L9.76298 20.5781L9.76298 24.8852ZM9.76298 16.0797L16.9414 20.3867L9.76298 20.3867L9.76298 16.0797Z" fill="white"/>
    <path d="M16.9414 20.5781L17.1987 21.0069L18.7466 20.0781L16.9414 20.0781L16.9414 20.5781ZM9.76298 24.8852L9.26298 24.8852L9.26298 25.7683L10.0202 25.3139L9.76298 24.8852ZM9.76298 20.5781L9.76298 20.0781L9.26298 20.0781L9.26298 20.5781L9.76298 20.5781ZM16.9414 20.3867L16.9414 20.8867L18.7466 20.8867L17.1987 19.958L16.9414 20.3867ZM9.76298 16.0797L10.0202 15.6509L9.26298 15.1966L9.26298 16.0797L9.76298 16.0797ZM9.76298 20.3867L9.26298 20.3867L9.26298 20.8867L9.76298 20.8867L9.76298 20.3867ZM16.6842 20.1494L9.50574 24.4564L10.0202 25.3139L17.1987 21.0069L16.6842 20.1494ZM9.76298 21.0781L16.9414 21.0781L16.9414 20.0781L9.76298 20.0781L9.76298 21.0781ZM10.263 24.8852L10.263 20.5781L9.26298 20.5781L9.26298 24.8852L10.263 24.8852ZM17.1987 19.958L10.0202 15.6509L9.50574 16.5084L16.6842 20.8155L17.1987 19.958ZM9.76298 20.8867L16.9414 20.8867L16.9414 19.8867L9.76298 19.8867L9.76298 20.8867ZM9.26298 16.0797L9.26298 20.3867L10.263 20.3867L10.263 16.0797L9.26298 16.0797Z" fill="white"/>
</svg>
