<svg width="25" height="28" viewBox="0 0 25 28" fill="none" xmlns="http://www.w3.org/2000/svg">
    <path d="M11.1099 21V20.048H13.1539V13.468H11.5299V12.726C11.9406 12.6513 12.2952 12.5627 12.5939 12.46C12.9019 12.348 13.1772 12.2173 13.4199 12.068H14.3019V20.048H16.1499V21H11.1099ZM20.2389 21.168C19.5296 21.168 18.9416 21.042 18.4749 20.79C18.0082 20.538 17.6209 20.258 17.3129 19.95L17.8729 19.194C18.1436 19.4553 18.4562 19.6933 18.8109 19.908C19.1656 20.1133 19.6042 20.216 20.1269 20.216C20.6776 20.216 21.1396 20.034 21.5129 19.67C21.8956 19.2967 22.0869 18.7973 22.0869 18.172C22.0869 17.556 21.9142 17.0753 21.5689 16.73C21.2236 16.3847 20.7616 16.212 20.1829 16.212C19.8749 16.212 19.6089 16.2587 19.3849 16.352C19.1702 16.4453 18.9276 16.5807 18.6569 16.758L18.0409 16.366L18.3349 12.068H22.8009V13.062H19.3429L19.1049 15.708C19.3196 15.596 19.5342 15.5073 19.7489 15.442C19.9636 15.3767 20.2062 15.344 20.4769 15.344C20.9902 15.344 21.4522 15.4467 21.8629 15.652C22.2829 15.848 22.6189 16.1513 22.8709 16.562C23.1229 16.9727 23.2489 17.5 23.2489 18.144C23.2489 18.788 23.1042 19.3387 22.8149 19.796C22.5349 20.244 22.1662 20.5847 21.7089 20.818C21.2516 21.0513 20.7616 21.168 20.2389 21.168Z" fill="#181818"/>
    <path d="M16.4387 6.33204H21.01V1.76073" stroke="#181818" stroke-width="1.5" stroke-linecap="round"/>
    <path d="M20.8208 6.16926C18.9543 3.07169 15.5582 1 11.6782 1C5.78728 1 1.01177 5.77551 1.01177 11.6664C1.01177 15.6145 3.15677 19.0616 6.34497 20.9058" stroke="#181818" stroke-width="1.5" stroke-linecap="round"/>
</svg>
