<svg  viewBox="0 0 24 24" fill="none" xmlns="http://www.w3.org/2000/svg">
<g clip-path="url(#clip0_1557_18438)">
<path fill-rule="evenodd" clip-rule="evenodd" d="M13.1342 13.6223C11.0502 13.7154 9.02205 14.1904 7.17105 15.2209C5.2974 16.2639 3.81501 17.7601 2.64461 19.5241C2.57814 19.6244 2.4515 19.6632 2.3389 19.618C2.2261 19.5729 2.16341 19.4582 2.1871 19.3408C3.45647 13.09 7.07355 9.38391 13.1342 8.41108V4.61185C13.1342 4.51319 13.1891 4.42894 13.2801 4.38754C13.3711 4.34614 13.4722 4.35973 13.5487 4.42359L21.7297 11.2505C21.788 11.2991 21.8184 11.3638 21.8184 11.4389C21.8184 11.5141 21.788 11.5788 21.7297 11.6274L13.5487 18.4543C13.4722 18.5181 13.3713 18.5315 13.2801 18.4903C13.1891 18.4489 13.1342 18.3645 13.1342 18.266V13.6225V13.6223Z" fill="black"/>
</g>
<defs>
<clipPath id="clip0_1557_18438">
<rect width="19.6364" height="15.2727" fill="white" transform="translate(2.18176 4.36363)"/>
</clipPath>
</defs>
</svg>
