<?xml version="1.0" encoding="utf-8" ?>
<!-- Generator: Adobe Illustrator 26.2.1, SVG Export Plug-In . SVG Version: 6.00 Build 0)  -->
<svg
	version="1.1"
	id="Layer_1"
	xmlns="http://www.w3.org/2000/svg"
	xmlns:xlink="http://www.w3.org/1999/xlink"
	x="0px"
	y="0px"
	viewBox="0 0 47.6 55.3"
	style="enable-background:new 0 0 47.6 55.3;"
	xml:space="preserve"
>
<style type="text/css">
.st0 {
	fill-rule: evenodd;
	clip-rule: evenodd;
}
	</style>
<g>
	<path
			class="st0"
			d="M45.9,18.6C43.1,15,39.1,13,35.3,13c-5,0-7.1,2.4-10.6,2.4c-3.6,0-6.3-2.4-10.6-2.4c-4.2,0-8.8,2.6-11.6,7
		c-4,6.2-3.3,17.9,3.2,27.8c2.3,3.6,5.5,7.5,9.5,7.6c3.6,0,4.7-2.3,9.6-2.3c4.9,0,5.8,2.4,9.5,2.3c4.1,0,7.4-4.5,9.7-8
		c1.7-2.5,2.3-3.8,3.6-6.7C38.1,37,36.6,23.7,45.9,18.6z"
		/>
	<path
			class="st0"
			d="M31.5,9c1.8-2.3,3.2-5.6,2.7-9c-3,0.2-6.4,2.1-8.5,4.6c-1.8,2.2-3.4,5.5-2.8,8.8C26.2,13.4,29.6,11.5,31.5,9z"
		/>
</g>
</svg>
