<svg viewBox="0 0 22 22" fill="none" xmlns="http://www.w3.org/2000/svg">
<path d="M9.26352 1.15192C7.97025 1.37996 6.73456 1.86049 5.62701 2.56609C4.51945 3.27168 3.56171 4.18851 2.80848 5.26424C2.05525 6.33996 1.52127 7.55351 1.23704 8.8356C0.952808 10.1177 0.923885 11.4432 1.15192 12.7365C1.37996 14.0298 1.86049 15.2654 2.56609 16.373C3.27168 17.4806 4.18851 18.4383 5.26424 19.1915C6.33996 19.9448 7.55351 20.4787 8.83561 20.763C10.1177 21.0472 11.4432 21.0761 12.7365 20.8481C14.0298 20.62 15.2654 20.1395 16.373 19.4339C17.4806 18.7283 18.4383 17.8115 19.1915 16.7358C19.9448 15.66 20.4787 14.4465 20.763 13.1644C21.0472 11.8823 21.0761 10.5568 20.8481 9.26352C20.62 7.97025 20.1395 6.73456 19.4339 5.627C18.7283 4.51945 17.8115 3.56171 16.7358 2.80848C15.66 2.05525 14.4465 1.52127 13.1644 1.23704C11.8823 0.952808 10.5568 0.923885 9.26352 1.15192L9.26352 1.15192Z" stroke="#332600" stroke-width="1.5"/>
<path d="M11 12L11 5" stroke="#332600" stroke-width="1.5" stroke-linecap="square"/>
<path d="M11 16L11 15.5" stroke="#332600" stroke-width="1.5" stroke-linecap="square"/>
</svg>
