<svg viewBox="0 0 45 57" fill="none" xmlns="http://www.w3.org/2000/svg">
<path
		d="M22.1489 56.7618C9.29375 56.7618 -0.0308251 47.8622 7.65787e-05 35.6038C0.0309783 23.0624 9.28603 14.1181 22.2725 14.0957C34.7799 14.0734 44.259 23.3528 44.1895 35.5591C44.1199 48.0409 35.058 56.7544 22.1489 56.7618Z"
		fill="#181818"
	/>
<path d="M17.1272 41.8274V27.9609L28.727 34.8942L17.1272 41.8274Z" fill="#EEEEEE" />
<path
		d="M37.4366 15.6071C27.2246 9.35364 17.0282 9.64819 6.68384 15.5996C9.21349 9.75393 15.7517 6.27976 23.2161 6.58942C29.801 6.86131 35.8721 10.6678 37.4366 15.6071Z"
		fill="#181818"
	/>
<path
		d="M33.4276 7.53171C25.8792 2.85035 18.3464 3.06384 10.6973 7.53171C12.5727 3.1477 17.4009 0.540174 22.9188 0.776529C27.7857 0.982386 32.2729 3.8339 33.4276 7.53933V7.53171Z"
		fill="#181818"
	/>
</svg>
