<svg width="25" height="28" viewBox="0 0 25 28" fill="none" xmlns="http://www.w3.org/2000/svg">
    <path d="M1.106 21V20.048H3.15V13.468H1.526V12.726C1.93667 12.6513 2.29133 12.5627 2.59 12.46C2.898 12.348 3.17333 12.2173 3.416 12.068H4.298V20.048H6.146V21H1.106ZM10.235 21.168C9.52565 21.168 8.93765 21.042 8.47098 20.79C8.00432 20.538 7.61698 20.258 7.30898 19.95L7.86898 19.194C8.13965 19.4553 8.45232 19.6933 8.80698 19.908C9.16165 20.1133 9.60032 20.216 10.123 20.216C10.6737 20.216 11.1357 20.034 11.509 19.67C11.8917 19.2967 12.083 18.7973 12.083 18.172C12.083 17.556 11.9103 17.0753 11.565 16.73C11.2197 16.3847 10.7577 16.212 10.179 16.212C9.87098 16.212 9.60498 16.2587 9.38098 16.352C9.16632 16.4453 8.92365 16.5807 8.65298 16.758L8.03698 16.366L8.33098 12.068H12.797V13.062H9.33898L9.10098 15.708C9.31565 15.596 9.53032 15.5073 9.74498 15.442C9.95965 15.3767 10.2023 15.344 10.473 15.344C10.9863 15.344 11.4483 15.4467 11.859 15.652C12.279 15.848 12.615 16.1513 12.867 16.562C13.119 16.9727 13.245 17.5 13.245 18.144C13.245 18.788 13.1003 19.3387 12.811 19.796C12.531 20.244 12.1623 20.5847 11.705 20.818C11.2477 21.0513 10.7577 21.168 10.235 21.168Z" fill="#181818"/>
    <path d="M8.57278 6.33166H4V1.75888" stroke="#181818" stroke-width="1.5" stroke-linecap="round"/>
    <path d="M4.18604 6.17092C6.0531 3.07235 9.45033 1 13.3316 1C19.2244 1 24.0014 5.77704 24.0014 11.6698C24.0014 15.6191 21.8557 19.0673 18.6665 20.9122" stroke="#181818" stroke-width="1.5" stroke-linecap="round"/>
</svg>
